Coordinates
version=1
nRows=19
nColumns=24
inDegrees=yes

Units are S.I. units (second, meters, Newtons, ...)
Angles are in degrees.

endheader
time	pelvis_tilt	pelvis_list	pelvis_rotation	pelvis_tx	pelvis_ty	pelvis_tz	hip_flexion_r	hip_adduction_r	hip_rotation_r	knee_angle_r	ankle_angle_r	subtalar_angle_r	mtp_angle_r	hip_flexion_l	hip_adduction_l	hip_rotation_l	knee_angle_l	ankle_angle_l	subtalar_angle_l	mtp_angle_l	lumbar_extension	lumbar_bending	lumbar_rotation
      3.71000000	     -9.94441550	      0.50967956	      3.04763735	     -1.60421719	     -0.02679299	     -0.64883546	     33.48749706	     -3.32730128	    -15.50970213	    -10.65174091	     -3.92200622	     -1.11390826	     14.91233870	     -5.65415573	      3.48040322	     -8.34621755	    -12.08139214	     11.79032513	      4.92499123	      9.42127255	      6.51448522	      1.61946652	     -9.15931487
      3.71500000	     -9.96297956	      0.37091934	      3.04194687	     -1.59748800	     -0.02755690	     -0.64820524	     33.54235196	     -3.12229812	    -14.94022261	    -11.32330955	     -4.28346989	     -1.87241275	     14.27741435	     -5.75066727	      3.18751646	     -8.35915247	    -12.70137366	     11.60299289	      5.10547079	      9.29045922	      6.65439881	      1.81018304	     -9.25451015
      3.72000000	     -9.98673258	      0.23040945	      3.00135524	     -1.59071736	     -0.02831932	     -0.64746105	     33.61795283	     -2.89516811	    -14.35498206	    -12.05251786	     -4.72611378	     -2.70617770	     13.51605426	     -5.82243496	      2.88084833	     -8.44804338	    -13.36215247	     11.40335286	      5.36365309	      9.16063414	      6.80138471	      2.00082148	     -9.31384693
      3.72500000	    -10.01613499	      0.08271429	      2.95423639	     -1.58393145	     -0.02904693	     -0.64666353	     33.70792978	     -2.65863389	    -13.78540880	    -12.81859862	     -5.24280461	     -3.61446106	     12.59012651	     -5.86220327	      2.55960971	     -8.54589140	    -14.06719757	     11.16294780	      5.62472489	      9.02514862	      6.95386736	      2.19522153	     -9.37355664
      3.73000000	    -10.05584420	     -0.08740194	      2.92149083	     -1.57714598	     -0.02971007	     -0.64584947	     33.81067001	     -2.41672933	    -13.29752696	    -13.59722496	     -5.82529331	     -4.55366267	     11.62122080	     -5.85523703	      2.20668822	     -8.62679485	    -14.82584715	     10.87397972	      5.87561566	      8.89920015	      7.11571552	      2.40803173	     -9.46165725
      3.73500000	    -10.11058185	     -0.29318384	      2.88588862	     -1.57033390	     -0.03029432	     -0.64502217	     33.92843776	     -2.15094808	    -12.90414984	    -14.37330784	     -6.45439916	     -5.50225423	     10.68643877	     -5.79977146	      1.81213009	     -8.69926531	    -15.63333655	     10.52707157	      6.09393811	      8.78244907	      7.29840061	      2.65905108	     -9.55642352
      3.74000000	    -10.19079199	     -0.59161937	      2.86710521	     -1.56340246	     -0.03078010	     -0.64432252	     34.04068386	     -1.83801489	    -12.71553515	    -15.09396195	     -7.10311096	     -6.32294992	     10.09339051	     -5.69066947	      1.33130818	     -8.66627194	    -16.47936765	     10.10256153	      6.16122823	      8.69135841	      7.53187141	      3.02606994	     -9.62953160
      3.74500000	    -10.26750540	     -0.75126501	      2.68166801	     -1.55665560	     -0.03124391	     -0.64314822	     34.19778918	     -1.50800204	    -12.06728366	    -15.87665630	     -7.61375555	     -7.42401316	      8.65052969	     -5.53773787	      0.95508547	     -9.09462083	    -17.41334910	      9.64431242	      6.54294172	      8.53438120	      7.71032981	      3.23114544	     -9.58024540
      3.75000000	    -10.36228839	     -1.04768826	      2.52582836	     -1.54976377	     -0.03158493	     -0.64213277	     34.34120245	     -1.09107071	    -11.68559388	    -16.65767045	     -7.94585685	     -8.21680572	      6.71084539	     -5.34189096	      0.44795583	     -9.33079580	    -18.38407778	      9.13741871	      6.72396753	      8.41555481	      7.93618500	      3.60192558	     -9.52181485
      3.75500000	    -10.41822290	     -1.31164388	      2.53730669	     -1.54297775	     -0.03169022	     -0.64136530	     34.39108341	     -0.83110912	    -11.57641802	    -17.32850627	     -8.37299790	     -9.01478108	      6.22726316	     -5.11105467	     -0.02355399	     -9.31366573	    -19.42510682	      8.42848021	      6.73027988	      8.32739113	      8.11460818	      3.90992100	     -9.68460247
      3.76000000	    -10.51464725	     -1.49939668	      2.35121547	     -1.53614580	     -0.03182065	     -0.64016131	     34.49072707	     -0.47552512	    -11.10580673	    -18.01437706	     -8.58636906	     -9.94414475	      5.02703339	     -4.81557490	     -0.45764542	     -9.75472906	    -20.53062780	      7.67660016	      7.00329692	      8.29016557	      8.32590657	      4.14888638	     -9.62893927
      3.76500000	    -10.57928063	     -1.74686914	      2.18257538	     -1.52930479	     -0.03179260	     -0.63907980	     34.51773563	     -0.08356614	    -10.78898499	    -18.66670750	     -8.62497745	    -10.59322086	      3.56965307	     -4.50963544	     -0.94490563	    -10.07273236	    -21.68713855	      6.79413725	      7.06158614	      8.40247592	      8.49946173	      4.46986071	     -9.55206877
      3.77000000	    -10.59973077	     -1.95676086	      2.13806967	     -1.52246032	     -0.03156440	     -0.63816998	     34.42056988	      0.20047015	    -10.59139167	    -19.19004323	     -8.65296216	    -11.24202584	      3.12669590	     -4.18787820	     -1.39265422	    -10.21295101	    -22.90115405	      5.73625954	      6.98302030	      8.39558813	      8.63997898	      4.72601811	     -9.68036029
      3.77500000	    -10.63301822	     -2.13991018	      1.91831559	     -1.51560066	     -0.03133016	     -0.63693683	     34.34103214	      0.59100011	    -10.23886853	    -19.72712985	     -8.49373803	    -11.75632068	      1.98032403	     -3.83457799	     -1.85338504	    -10.69599596	    -24.15044062	      4.51322146	      7.00954226	      8.89989566	      8.77445848	      4.97639411	     -9.53852170
      3.78000000	    -10.60351789	     -2.32904040	      1.84664404	     -1.50870388	     -0.03087192	     -0.63601937	     34.10174182	      0.88906849	    -10.09370838	    -20.10900929	     -8.36447647	    -12.22390456	      1.84859957	     -3.48899640	     -2.28592038	    -10.84704801	    -25.45451074	      3.17021121	      6.75455580	      8.80775175	      8.86628348	      5.21855742	     -9.58699597
      3.78500000	    -10.63187534	     -2.46341626	      1.62434523	     -1.50196789	     -0.03049543	     -0.63470965	     33.93296358	      1.27817943	     -9.64863115	    -20.49012951	     -8.15207534	    -12.78985057	      0.95767429	     -3.03199936	     -2.72394147	    -11.31587280	    -26.81381472	      1.57038560	      6.62301132	      9.81783022	      8.97137973	      5.41164658	     -9.46865970
      3.79000000	    -10.55575067	     -2.63166462	      1.53963092	     -1.49516169	     -0.02988087	     -0.63378393	     33.56727545	      1.58944412	     -9.49504726	    -20.74035352	     -7.91909643	    -13.17689364	      0.89062515	     -2.63533333	     -3.14575824	    -11.45519115	    -28.23678384	     -0.01135389	      6.22965359	      9.68604838	      8.99588526	      5.63567776	     -9.48455882
      3.79500000	    -10.56158458	     -2.74806581	      1.33179094	     -1.48855904	     -0.02937786	     -0.63251368	     33.30177124	      1.97364832	     -9.03374468	    -20.99575980	     -7.65876120	    -13.70543909	      0.09939921	     -2.11243167	     -3.56256238	    -11.80593465	    -29.66258123	     -1.96767061	      5.81831748	     10.97591780	      9.06091227	      5.80600569	     -9.35934182
      3.80000000	    -10.45334132	     -2.89550529	      1.25474274	     -1.48199652	     -0.02866766	     -0.63160060	     32.85137815	      2.28320288	     -8.84069299	    -21.14432341	     -7.41663800	    -14.11884679	     -0.03372188	     -1.64457130	     -3.96387456	    -11.86580048	    -31.18727424	     -3.75021040	      5.29934363	     10.87068070	      9.01061209	      6.00648058	     -9.36804040
